# xmcd
# 
# Track frame offsets:
#     150
#     19875
#     37875
#     49425
#     70200
#     85350
#     101300
#     116075
#     130213
#     161475
#     184613
#     200313
# 
# Disc length: 2941
# 
# Revision: 6
# Processed by: cddbd v1.5.2PL0 Copyright (c) Steve Scherf et al.
# Submitted via: fre:ac v1.1beta1pre5
# 
DISCID=9e0b7b0c
DTITLE=William Clarke - Serious Intentions
DYEAR=1992
DGENRE=Blues
TTITLE0=Pawnshop Bound
TTITLE1=Trying To Stretch My Money
TTITLE2=Educated Fool
TTITLE3=Going Down This Highway
TTITLE4=I Know You're Fine
TTITLE5=Driving My Life Away
TTITLE6=Chasin' The Gator
TTITLE7=With A Tear In My Eye
TTITLE8=It's Been A Long Time
TTITLE9=Work Song
TTITLE10=I Feel Like Jumping
TTITLE11=Soon Forgotten
EXTD=YEAR: 1992
EXTT0=
EXTT1=
EXTT2=
EXTT3=
EXTT4=
EXTT5=
EXTT6=
EXTT7=
EXTT8=
EXTT9=
EXTT10=
EXTT11=
PLAYORDER=
